<mxfile host="Electron" agent="Mozilla/5.0 (Windows NT 10.0; Win64; x64) AppleWebKit/537.36 (KHTML, like Gecko) draw.io/24.7.8 Chrome/128.0.6613.36 Electron/32.0.1 Safari/537.36" version="24.7.8">
  <diagram name="PÃ¡gina-1" id="WZyg1-MBslfKyj2Cj7Zg">
    <mxGraphModel dx="401" dy="1685" grid="1" gridSize="10" guides="1" tooltips="1" connect="1" arrows="1" fold="1" page="1" pageScale="1" pageWidth="827" pageHeight="1169" math="0" shadow="0">
      <root>
        <mxCell id="0" />
        <mxCell id="1" parent="0" />
        <mxCell id="ccAjcgKbzHJrOh6tXT5w-1" value="CuentaUsuario" style="swimlane;fontStyle=1;align=center;verticalAlign=top;childLayout=stackLayout;horizontal=1;startSize=26;horizontalStack=0;resizeParent=1;resizeParentMax=0;resizeLast=0;collapsible=1;marginBottom=0;whiteSpace=wrap;html=1;" vertex="1" parent="1">
          <mxGeometry x="170" y="-20" width="420" height="410" as="geometry" />
        </mxCell>
        <mxCell id="ccAjcgKbzHJrOh6tXT5w-2" value="- _:nombre : String&lt;div&gt;- _email : String&lt;/div&gt;&lt;div&gt;- _contrasenia : Entero&lt;/div&gt;&lt;div&gt;- _estadoSesion = False : Booleano&lt;/div&gt;&lt;div&gt;- _registroOp = [] : list&lt;/div&gt;" style="text;strokeColor=none;fillColor=none;align=left;verticalAlign=top;spacingLeft=4;spacingRight=4;overflow=hidden;rotatable=0;points=[[0,0.5],[1,0.5]];portConstraint=eastwest;whiteSpace=wrap;html=1;" vertex="1" parent="ccAjcgKbzHJrOh6tXT5w-1">
          <mxGeometry y="26" width="420" height="94" as="geometry" />
        </mxCell>
        <mxCell id="ccAjcgKbzHJrOh6tXT5w-3" value="" style="line;strokeWidth=1;fillColor=none;align=left;verticalAlign=middle;spacingTop=-1;spacingLeft=3;spacingRight=3;rotatable=0;labelPosition=right;points=[];portConstraint=eastwest;strokeColor=inherit;" vertex="1" parent="ccAjcgKbzHJrOh6tXT5w-1">
          <mxGeometry y="120" width="420" height="8" as="geometry" />
        </mxCell>
        <mxCell id="ccAjcgKbzHJrOh6tXT5w-4" value="+ __init__(nombre : String, email : String,&lt;div&gt;&lt;span style=&quot;white-space: pre;&quot;&gt;&#x9;&lt;/span&gt;&lt;span style=&quot;white-space: pre;&quot;&gt;&#x9;&lt;span style=&quot;white-space: pre;&quot;&gt;&#x9;&lt;/span&gt;contrasenia : Entero)&lt;/span&gt;&lt;br&gt;&lt;/div&gt;&lt;div&gt;&lt;br&gt;&lt;/div&gt;&lt;div&gt;+ getNombre () : String&lt;/div&gt;&lt;div&gt;+ getEmail () : String&lt;/div&gt;&lt;div&gt;+ getContrasenia () : Entero&lt;/div&gt;&lt;div&gt;+ getEstadoSesion () : Booleano&lt;/div&gt;&lt;div&gt;&lt;br&gt;&lt;/div&gt;&lt;div&gt;+ setNombre () : String&lt;/div&gt;&lt;div&gt;+ setEmail () : String&lt;/div&gt;&lt;div&gt;+ setEstado () : Booleano&lt;/div&gt;&lt;div&gt;&lt;br&gt;&lt;/div&gt;&lt;div&gt;+ cambiarContrasenia(contraseniaActual: Entero, nuevaContrasenia: Entero)&lt;/div&gt;&lt;div&gt;+ consultarDatos () : dict&lt;/div&gt;&lt;div&gt;+ mostrarRegistroOperaciones () : list&lt;/div&gt;&lt;div&gt;+ enviarMensaje (emailDestino: String, mensaje : String)&lt;/div&gt;&lt;div&gt;+ iniciarSesion (email: String, contrasenia: String)&lt;/div&gt;&lt;div&gt;+ cerrarSesion( ) :&lt;/div&gt;" style="text;strokeColor=none;fillColor=none;align=left;verticalAlign=top;spacingLeft=4;spacingRight=4;overflow=hidden;rotatable=0;points=[[0,0.5],[1,0.5]];portConstraint=eastwest;whiteSpace=wrap;html=1;" vertex="1" parent="ccAjcgKbzHJrOh6tXT5w-1">
          <mxGeometry y="128" width="420" height="282" as="geometry" />
        </mxCell>
      </root>
    </mxGraphModel>
  </diagram>
</mxfile>
